<?xml version="1.0" encoding="UTF-8" standalone="no"?><!DOCTYPE svg PUBLIC "-//W3C//DTD SVG 1.1//EN" "http://www.w3.org/Graphics/SVG/1.1/DTD/svg11.dtd"><svg width="100%" height="100%" viewBox="0 0 344 212" version="1.1" xmlns="http://www.w3.org/2000/svg" xmlns:xlink="http://www.w3.org/1999/xlink" xml:space="preserve" xmlns:serif="http://www.serif.com/" style="fill-rule:evenodd;clip-rule:evenodd;stroke-linejoin:round;stroke-miterlimit:2;"><rect id="Artboard2" x="0" y="0" width="343.212" height="211.267" style="fill:none;"/><circle id="dot" cx="240.345" cy="155.387" r="16.584" style="fill:#79b688;"/><path id="a" d="M169.491,48.483l0,-9.187l32.656,0l0,132.675l-32.656,0l0,-9.187c-9.875,5.837 -21.39,9.187 -33.682,9.187c-36.613,0 -66.338,-29.725 -66.338,-66.338c0,-36.612 29.725,-66.337 66.338,-66.337c12.292,0 23.807,3.35 33.682,9.187Zm-33.682,23.981c18.306,0 33.169,14.863 33.169,33.169c0,18.307 -14.863,33.169 -33.169,33.169c-18.306,0 -33.169,-14.862 -33.169,-33.169c0,-18.306 14.863,-33.169 33.169,-33.169Z" style="fill:#79b688;"/></svg>