<?xml version="1.0" encoding="UTF-8" standalone="no"?><!DOCTYPE svg PUBLIC "-//W3C//DTD SVG 1.1//EN" "http://www.w3.org/Graphics/SVG/1.1/DTD/svg11.dtd"><svg width="100%" height="100%" viewBox="0 0 66 17" version="1.1" xmlns="http://www.w3.org/2000/svg" xmlns:xlink="http://www.w3.org/1999/xlink" xml:space="preserve" xmlns:serif="http://www.serif.com/" style="fill-rule:evenodd;clip-rule:evenodd;stroke-linejoin:round;stroke-miterlimit:2;"><rect id="Artboard1" x="0" y="0" width="65.246" height="16.026" style="fill:none;"/><circle id="dot" cx="61.617" cy="12.513" r="1.5" style="fill:#79b688;"/><path id="a" d="M55.208,2.843l0,-0.831l2.954,0l0,12.001l-2.954,0l0,-0.831c-0.893,0.528 -1.935,0.831 -3.047,0.831c-3.311,0 -6,-2.689 -6,-6c0,-3.312 2.689,-6.001 6,-6.001c1.112,0 2.154,0.303 3.047,0.831Zm-3.047,2.17c1.656,0 3.001,1.344 3.001,3c0,1.656 -1.345,3 -3.001,3c-1.655,0 -3,-1.344 -3,-3c0,-1.656 1.345,-3 3,-3Z" style="fill:#79b688;"/><path id="a1" serif:id="a" d="M45.378,14.013c0,0 0,0 0,0Zm-3.046,0l-2.954,0l0,-12.001l2.954,0l0,0.831c0.893,-0.528 1.934,-0.831 3.046,-0.831l0,3.001c-1.656,0 -3,1.344 -3,3c0,0 0,0 0,0c0,0 -0.046,6 -0.046,6Z" style="fill:#79b688;"/><path id="a2" serif:id="a" d="M34.143,2.843l0,-0.831l2.954,0l0,12.001l-2.954,0l0,-0.831c-0.893,0.528 -1.934,0.831 -3.046,0.831c-3.312,0 -6.001,-2.689 -6.001,-6c0,-3.312 2.689,-6.001 6.001,-6.001c1.112,0 2.153,0.303 3.046,0.831Zm-3.046,2.17c1.656,0 3,1.344 3,3c0,1.656 -1.344,3 -3,3c-1.656,0 -3,-1.344 -3,-3c0,-1.656 1.344,-3 3,-3Z" style="fill:#79b688;"/><path id="c" d="M23.619,13.74c-0.567,0.177 -1.17,0.273 -1.795,0.273c-3.311,0 -6,-2.689 -6,-6c0,-3.312 2.689,-6.001 6,-6.001c0.625,0 1.228,0.096 1.795,0.274l0,3.323c-0.5,-0.374 -1.122,-0.596 -1.795,-0.596c-1.656,0 -3,1.344 -3,3c0,1.656 1.344,3 3,3c0.673,0 1.295,-0.222 1.795,-0.596l0,3.323Z" style="fill:#79b688;"/><path id="a3" serif:id="a" d="M11.176,2.843l0,-0.831l2.953,0l0,12.001l-2.953,0l0,-0.831c-0.894,0.528 -1.935,0.831 -3.047,0.831c-3.312,0 -6,-2.689 -6,-6c0,-3.312 2.688,-6.001 6,-6.001c1.112,0 2.153,0.303 3.047,0.831Zm-3.047,2.17c1.656,0 3,1.344 3,3c0,1.656 -1.344,3 -3,3c-1.656,0 -3,-1.344 -3,-3c0,-1.656 1.344,-3 3,-3Z" style="fill:#79b688;"/></svg>